<svg width="100" height="100" viewBox="0 0 100 100" fill="none" xmlns="http://www.w3.org/2000/svg">
<path d="M0 0H100V100H0V0Z" fill="black"/>
<path d="M20.0881 67.0001V61.4561H36.6361C40.6121 61.4561 43.8881 60.5041 46.4641 58.6001C49.0961 56.6961 51.0281 54.0921 52.2601 50.7881C53.5481 47.4841 54.1921 43.7041 54.1921 39.4481C54.1921 35.5841 53.7721 32.2521 52.9321 29.4521C52.1481 26.6521 50.9161 24.3561 49.2361 22.5641C47.6121 20.7161 45.5401 19.3441 43.0201 18.4481C40.5561 17.5521 37.6161 17.1041 34.2001 17.1041H20.0881V11.5601H34.1161C40.2201 11.5601 45.2041 12.6521 49.0681 14.8361C52.9881 17.0201 55.8721 20.1561 57.7201 24.2441C59.6241 28.3321 60.5761 33.2321 60.5761 38.9441C60.5761 42.5281 60.1841 45.8041 59.4001 48.7721C58.6721 51.7401 57.6081 54.3721 56.2081 56.6681C54.8081 58.9081 53.1281 60.8121 51.1681 62.3801C49.2081 63.8921 46.9961 65.0401 44.5321 65.8241C42.1241 66.6081 39.5481 67.0001 36.8041 67.0001H20.0881ZM16.5601 67.0001V11.5601H22.7761V67.0001H16.5601Z" fill="white"/>
<path d="M57.328 90.0001V71.8561L38.26 34.5601H45.4L60.352 65.5561H60.688L75.472 34.5601H82.696L63.628 71.8561V90.0001H57.328Z" fill="white"/>
</svg>
