<svg width="100" height="100" viewBox="0 0 100 100" fill="none" xmlns="http://www.w3.org/2000/svg">
<path d="M0 0H100V100H0V0Z" fill="black"/>
<path d="M20.7679 73.9999V69.1159H35.3459C38.8486 69.1159 41.7346 68.2772 44.0039 66.5999C46.3226 64.9226 48.0246 62.6286 49.1099 59.7179C50.2446 56.8072 50.8119 53.4772 50.8119 49.7279C50.8119 46.3239 50.4419 43.3886 49.7019 40.9219C49.0112 38.4552 47.9259 36.4326 46.4459 34.8539C45.0152 33.2259 43.1899 32.0172 40.9699 31.2279C38.7992 30.4386 36.2092 30.0439 33.1999 30.0439H20.7679V25.1599H33.1259C38.5032 25.1599 42.8939 26.1219 46.2979 28.0459C49.7512 29.9699 52.2919 32.7326 53.9199 36.3339C55.5972 39.9352 56.4359 44.2519 56.4359 49.2839C56.4359 52.4412 56.0906 55.3273 55.3999 57.9419C54.7586 60.5566 53.8212 62.8752 52.5879 64.8979C51.3546 66.8712 49.8746 68.5486 48.1479 69.9299C46.4212 71.2619 44.4726 72.2732 42.3019 72.9639C40.1806 73.6546 37.9112 73.9999 35.4939 73.9999H20.7679ZM17.6599 73.9999V25.1599H23.1359V73.9999H17.6599Z" fill="white"/>
<path d="M64.9081 73.9999V58.0159L48.1101 25.1599H54.4001L67.5721 52.4659H67.8681L80.8921 25.1599H87.2561L70.4581 58.0159V73.9999H64.9081Z" fill="white"/>
</svg>
